<svg xmlns="http://www.w3.org/2000/svg" xmlns:xlink="http://www.w3.org/1999/xlink" width="500" zoomAndPan="magnify" viewBox="0 0 375 374.999991" height="500" preserveAspectRatio="xMidYMid meet" version="1.0"><path fill="#98e7ff" d="M 125.6875 26.011719 C 123.042969 27.316406 120.433594 28.683594 117.859375 30.113281 C 115.285156 31.542969 112.746094 33.039062 110.242188 34.59375 C 107.742188 36.148438 105.277344 37.765625 102.855469 39.441406 C 100.433594 41.117188 98.054688 42.855469 95.714844 44.648438 C 93.378906 46.441406 91.085938 48.289062 88.839844 50.195312 C 86.589844 52.101562 84.394531 54.0625 82.242188 56.078125 C 80.09375 58.089844 77.992188 60.15625 75.941406 62.273438 C 73.894531 64.390625 71.898438 66.558594 69.953125 68.773438 C 68.011719 70.988281 66.125 73.25 64.292969 75.554688 C 62.460938 77.863281 60.6875 80.214844 58.96875 82.609375 C 57.253906 85.003906 55.597656 87.441406 54 89.917969 C 52.40625 92.394531 50.871094 94.90625 49.394531 97.457031 C 47.921875 100.011719 46.511719 102.597656 45.167969 105.21875 C 43.820312 107.839844 42.539062 110.492188 41.324219 113.175781 C 40.105469 115.859375 38.957031 118.570312 37.875 121.308594 C 36.789062 124.050781 35.777344 126.816406 34.828125 129.605469 C 33.882812 132.394531 33.003906 135.207031 32.195312 138.039062 C 31.382812 140.871094 30.644531 143.722656 29.976562 146.59375 C 29.308594 149.460938 28.707031 152.347656 28.179688 155.246094 C 27.652344 158.144531 27.195312 161.054688 26.8125 163.976562 C 26.425781 166.898438 26.113281 169.824219 25.875 172.761719 C 25.632812 175.699219 25.464844 178.640625 25.367188 181.585938 C 25.269531 184.527344 25.246094 187.472656 25.292969 190.421875 C 25.34375 193.367188 25.464844 196.308594 25.65625 199.25 C 25.847656 202.191406 26.113281 205.125 26.449219 208.050781 C 26.785156 210.976562 27.195312 213.894531 27.675781 216.800781 C 28.152344 219.707031 28.703125 222.601562 29.328125 225.484375 C 29.949219 228.363281 30.640625 231.226562 31.402344 234.070312 C 32.164062 236.917969 32.996094 239.742188 33.898438 242.546875 C 34.800781 245.355469 35.769531 248.136719 36.804688 250.894531 C 37.84375 253.648438 38.949219 256.382812 40.121094 259.085938 C 41.292969 261.789062 42.53125 264.460938 43.832031 267.101562 C 45.136719 269.746094 46.503906 272.355469 47.933594 274.929688 C 49.367188 277.507812 50.859375 280.042969 52.414062 282.546875 C 53.96875 285.050781 55.585938 287.511719 57.261719 289.933594 C 58.941406 292.355469 60.675781 294.738281 62.46875 297.074219 C 64.261719 299.414062 66.113281 301.707031 68.019531 303.953125 C 69.925781 306.199219 71.882812 308.398438 73.898438 310.546875 C 75.914062 312.699219 77.976562 314.796875 80.09375 316.847656 C 82.210938 318.898438 84.378906 320.894531 86.59375 322.835938 C 88.808594 324.777344 91.070312 326.664062 93.378906 328.496094 C 95.683594 330.328125 98.035156 332.101562 100.429688 333.820312 C 102.828125 335.535156 105.261719 337.191406 107.738281 338.789062 C 110.214844 340.386719 112.726562 341.921875 115.28125 343.394531 C 117.832031 344.867188 120.417969 346.277344 123.039062 347.625 C 125.660156 348.972656 128.3125 350.253906 130.996094 351.46875 C 133.679688 352.683594 136.390625 353.832031 139.132812 354.917969 C 141.871094 356 144.636719 357.015625 147.425781 357.960938 C 150.214844 358.910156 153.027344 359.789062 155.859375 360.597656 C 158.695312 361.40625 161.546875 362.144531 164.414062 362.816406 C 167.285156 363.484375 170.167969 364.082031 173.066406 364.609375 C 175.964844 365.136719 178.875 365.59375 181.796875 365.976562 C 184.71875 366.363281 187.648438 366.675781 190.582031 366.917969 C 193.519531 367.15625 196.460938 367.328125 199.40625 367.421875 C 202.351562 367.519531 205.296875 367.542969 208.242188 367.496094 C 211.1875 367.449219 214.132812 367.328125 217.070312 367.136719 C 220.011719 366.941406 222.945312 366.679688 225.871094 366.339844 C 228.800781 366.003906 231.714844 365.597656 234.625 365.117188 C 237.53125 364.636719 240.425781 364.085938 243.304688 363.464844 C 246.183594 362.84375 249.046875 362.152344 251.894531 361.386719 C 254.738281 360.625 257.566406 359.792969 260.371094 358.894531 C 263.175781 357.992188 265.957031 357.023438 268.714844 355.984375 C 271.472656 354.945312 274.203125 353.84375 276.90625 352.671875 C 279.609375 351.5 282.28125 350.261719 284.925781 348.957031 C 290.109375 346.394531 295.160156 343.589844 300.074219 340.542969 C 304.988281 337.496094 309.742188 334.21875 314.339844 330.710938 C 318.941406 327.203125 323.359375 323.484375 327.597656 319.550781 C 331.839844 315.617188 335.878906 311.492188 339.722656 307.167969 C 343.5625 302.847656 347.191406 298.351562 350.597656 293.679688 C 354.007812 289.007812 357.183594 284.183594 360.128906 279.207031 C 363.070312 274.230469 365.769531 269.121094 368.222656 263.886719 C 370.675781 258.648438 372.867188 253.304688 374.804688 247.855469 C 363.972656 258.9375 351.613281 267.917969 337.726562 274.800781 C 335.71875 275.792969 333.683594 276.734375 331.628906 277.625 C 329.574219 278.515625 327.5 279.355469 325.402344 280.144531 C 323.304688 280.933594 321.191406 281.667969 319.058594 282.355469 C 316.925781 283.039062 314.777344 283.671875 312.613281 284.253906 C 310.449219 284.832031 308.273438 285.359375 306.082031 285.832031 C 303.894531 286.304688 301.695312 286.722656 299.484375 287.085938 C 297.273438 287.453125 295.054688 287.761719 292.832031 288.019531 C 290.605469 288.273438 288.375 288.476562 286.140625 288.621094 C 283.902344 288.769531 281.667969 288.859375 279.425781 288.894531 C 277.1875 288.933594 274.945312 288.914062 272.707031 288.839844 C 270.46875 288.765625 268.234375 288.640625 266 288.457031 C 263.769531 288.273438 261.542969 288.035156 259.320312 287.742188 C 257.101562 287.449219 254.886719 287.101562 252.683594 286.703125 C 250.480469 286.300781 248.289062 285.84375 246.105469 285.335938 C 243.925781 284.828125 241.757812 284.265625 239.601562 283.652344 C 237.449219 283.035156 235.3125 282.367188 233.191406 281.648438 C 231.070312 280.925781 228.96875 280.15625 226.882812 279.332031 C 224.800781 278.507812 222.738281 277.636719 220.699219 276.710938 C 218.65625 275.785156 216.640625 274.8125 214.648438 273.789062 C 212.65625 272.765625 210.691406 271.691406 208.75 270.574219 C 206.808594 269.453125 204.898438 268.285156 203.015625 267.070312 C 201.132812 265.855469 199.28125 264.597656 197.460938 263.292969 C 195.640625 261.988281 193.851562 260.640625 192.097656 259.246094 C 190.34375 257.855469 188.625 256.417969 186.941406 254.941406 C 185.257812 253.464844 183.609375 251.945312 182 250.390625 C 180.390625 248.832031 178.820312 247.234375 177.289062 245.601562 C 175.757812 243.964844 174.265625 242.292969 172.816406 240.585938 C 171.371094 238.875 169.960938 237.132812 168.597656 235.355469 C 167.234375 233.578125 165.917969 231.769531 164.640625 229.929688 C 163.367188 228.085938 162.136719 226.214844 160.957031 224.3125 C 159.773438 222.410156 158.636719 220.480469 157.550781 218.519531 C 156.460938 216.5625 155.421875 214.578125 154.429688 212.570312 C 153.441406 210.5625 152.5 208.527344 151.609375 206.472656 C 150.71875 204.417969 149.878906 202.34375 149.089844 200.246094 C 148.300781 198.148438 147.5625 196.035156 146.878906 193.902344 C 146.191406 191.769531 145.558594 189.621094 144.980469 187.457031 C 144.402344 185.292969 143.875 183.117188 143.402344 180.925781 C 142.929688 178.738281 142.511719 176.539062 142.144531 174.328125 C 141.78125 172.117188 141.472656 169.898438 141.214844 167.671875 C 140.957031 165.449219 140.757812 163.21875 140.613281 160.984375 C 140.464844 158.746094 140.375 156.511719 140.335938 154.269531 C 140.300781 152.03125 140.320312 149.789062 140.390625 147.550781 C 140.464844 145.3125 140.59375 143.078125 140.777344 140.84375 C 140.960938 138.613281 141.199219 136.386719 141.492188 134.164062 C 141.785156 131.945312 142.128906 129.730469 142.53125 127.527344 C 142.933594 125.324219 143.386719 123.132812 143.894531 120.949219 C 144.40625 118.769531 144.96875 116.601562 145.582031 114.445312 C 146.199219 112.292969 146.867188 110.15625 147.585938 108.035156 C 148.304688 105.914062 149.078125 103.808594 149.902344 101.726562 C 150.722656 99.644531 151.597656 97.582031 152.523438 95.542969 C 153.445312 93.5 154.421875 91.484375 155.445312 89.492188 C 156.46875 87.5 157.539062 85.535156 158.660156 83.59375 C 159.78125 81.652344 160.949219 79.742188 162.160156 77.859375 C 163.375 75.976562 164.636719 74.125 165.941406 72.304688 C 167.246094 70.484375 168.59375 68.695312 169.984375 66.941406 C 171.378906 65.1875 172.8125 63.46875 174.289062 61.785156 C 175.769531 60.101562 177.285156 58.453125 178.84375 56.84375 C 180.402344 55.234375 181.996094 53.664062 183.632812 52.132812 C 185.269531 50.601562 186.9375 49.109375 188.648438 47.660156 C 190.355469 46.210938 192.097656 44.804688 193.875 43.441406 C 195.652344 42.078125 197.460938 40.761719 199.304688 39.484375 C 201.148438 38.210938 203.019531 36.980469 204.921875 35.800781 C 206.824219 34.617188 208.753906 33.480469 210.710938 32.394531 C 212.667969 31.304688 214.652344 30.265625 216.664062 29.273438 C 230.582031 22.414062 245.242188 18.042969 260.644531 16.167969 C 255.140625 14.390625 249.5625 12.882812 243.914062 11.640625 C 238.261719 10.402344 232.566406 9.433594 226.824219 8.742188 C 221.078125 8.050781 215.316406 7.636719 209.535156 7.5 C 203.75 7.367188 197.976562 7.507812 192.207031 7.929688 C 186.4375 8.347656 180.699219 9.046875 175 10.019531 C 169.296875 10.992188 163.65625 12.238281 158.074219 13.757812 C 152.492188 15.273438 146.996094 17.058594 141.585938 19.105469 C 136.175781 21.152344 130.875 23.453125 125.6875 26.011719 Z M 125.6875 26.011719 " fill-opacity="1" fill-rule="evenodd"/></svg>