<svg xmlns="http://www.w3.org/2000/svg" xmlns:xlink="http://www.w3.org/1999/xlink" width="500" zoomAndPan="magnify" viewBox="0 0 375 374.999991" height="500" preserveAspectRatio="xMidYMid meet" version="1.0"><path fill="#ffff00" d="M 125.6875 25.992188 C 123.042969 27.296875 120.433594 28.660156 117.859375 30.09375 C 115.285156 31.523438 112.746094 33.015625 110.242188 34.570312 C 107.742188 36.125 105.277344 37.738281 102.855469 39.414062 C 100.433594 41.089844 98.054688 42.824219 95.714844 44.617188 C 93.378906 46.40625 91.085938 48.257812 88.839844 50.160156 C 86.589844 52.066406 84.394531 54.023438 82.242188 56.039062 C 80.09375 58.050781 77.992188 60.113281 75.941406 62.230469 C 73.894531 64.34375 71.898438 66.507812 69.953125 68.722656 C 68.011719 70.9375 66.125 73.195312 64.292969 75.503906 C 62.460938 77.808594 60.6875 80.160156 58.96875 82.550781 C 57.253906 84.945312 55.597656 87.378906 54 89.851562 C 52.40625 92.328125 50.871094 94.839844 49.394531 97.390625 C 47.921875 99.9375 46.511719 102.523438 45.167969 105.140625 C 43.820312 107.761719 42.539062 110.410156 41.324219 113.09375 C 40.105469 115.773438 38.957031 118.484375 37.875 121.222656 C 36.789062 123.960938 35.777344 126.722656 34.828125 129.511719 C 33.882812 132.300781 33.003906 135.109375 32.195312 137.941406 C 31.382812 140.773438 30.644531 143.621094 29.976562 146.488281 C 29.308594 149.355469 28.707031 152.238281 28.179688 155.132812 C 27.652344 158.03125 27.195312 160.9375 26.8125 163.859375 C 26.425781 166.777344 26.113281 169.703125 25.875 172.636719 C 25.632812 175.574219 25.464844 178.511719 25.367188 181.453125 C 25.269531 184.394531 25.246094 187.339844 25.292969 190.285156 C 25.34375 193.226562 25.464844 196.167969 25.65625 199.105469 C 25.847656 202.042969 26.113281 204.976562 26.449219 207.902344 C 26.785156 210.824219 27.195312 213.742188 27.675781 216.644531 C 28.152344 219.550781 28.703125 222.441406 29.328125 225.320312 C 29.949219 228.199219 30.640625 231.058594 31.402344 233.902344 C 32.164062 236.746094 32.996094 239.570312 33.898438 242.375 C 34.800781 245.175781 35.769531 247.957031 36.804688 250.710938 C 37.84375 253.46875 38.949219 256.195312 40.121094 258.898438 C 41.292969 261.597656 42.53125 264.269531 43.832031 266.910156 C 45.136719 269.550781 46.503906 272.160156 47.933594 274.730469 C 49.367188 277.304688 50.859375 279.84375 52.414062 282.34375 C 53.96875 284.84375 55.585938 287.304688 57.261719 289.726562 C 58.941406 292.148438 60.675781 294.523438 62.46875 296.859375 C 64.261719 299.195312 66.113281 301.488281 68.019531 303.734375 C 69.925781 305.976562 71.882812 308.175781 73.898438 310.324219 C 75.914062 312.472656 77.976562 314.570312 80.09375 316.621094 C 82.210938 318.667969 84.378906 320.660156 86.59375 322.601562 C 88.808594 324.542969 91.070312 326.429688 93.378906 328.261719 C 95.683594 330.089844 98.035156 331.863281 100.429688 333.578125 C 102.828125 335.292969 105.261719 336.949219 107.738281 338.546875 C 110.214844 340.140625 112.726562 341.675781 115.28125 343.148438 C 117.832031 344.621094 120.417969 346.027344 123.039062 347.375 C 125.660156 348.71875 128.3125 350 130.996094 351.214844 C 133.679688 352.429688 136.390625 353.578125 139.132812 354.660156 C 141.871094 355.742188 144.636719 356.757812 147.425781 357.703125 C 150.214844 358.652344 153.027344 359.527344 155.859375 360.335938 C 158.695312 361.144531 161.546875 361.882812 164.414062 362.554688 C 167.285156 363.222656 170.167969 363.820312 173.066406 364.347656 C 175.964844 364.875 178.875 365.328125 181.796875 365.714844 C 184.71875 366.097656 187.648438 366.410156 190.582031 366.652344 C 193.519531 366.894531 196.460938 367.0625 199.40625 367.15625 C 202.351562 367.253906 205.296875 367.277344 208.242188 367.230469 C 211.1875 367.183594 214.132812 367.0625 217.070312 366.871094 C 220.011719 366.679688 222.945312 366.414062 225.871094 366.078125 C 228.800781 365.742188 231.714844 365.332031 234.625 364.851562 C 237.53125 364.375 240.425781 363.824219 243.304688 363.203125 C 246.183594 362.582031 249.046875 361.890625 251.894531 361.128906 C 254.738281 360.367188 257.566406 359.535156 260.371094 358.632812 C 263.175781 357.734375 265.957031 356.765625 268.714844 355.726562 C 271.472656 354.691406 274.203125 353.585938 276.90625 352.414062 C 279.609375 351.246094 282.28125 350.007812 284.925781 348.707031 C 290.109375 346.144531 295.160156 343.34375 300.074219 340.296875 C 304.988281 337.25 309.742188 333.976562 314.339844 330.472656 C 318.941406 326.96875 323.359375 323.25 327.597656 319.320312 C 331.839844 315.390625 335.878906 311.265625 339.722656 306.949219 C 343.5625 302.628906 347.191406 298.136719 350.597656 293.46875 C 354.007812 288.800781 357.183594 283.980469 360.128906 279.007812 C 363.070312 274.03125 365.769531 268.929688 368.222656 263.695312 C 370.675781 258.460938 372.867188 253.121094 374.804688 247.675781 C 363.972656 258.75 351.613281 267.726562 337.726562 274.605469 C 335.71875 275.59375 333.683594 276.535156 331.628906 277.425781 C 329.574219 278.3125 327.5 279.152344 325.402344 279.941406 C 323.304688 280.730469 321.191406 281.464844 319.058594 282.152344 C 316.925781 282.835938 314.777344 283.46875 312.613281 284.046875 C 310.449219 284.625 308.273438 285.152344 306.082031 285.625 C 303.894531 286.097656 301.695312 286.515625 299.484375 286.878906 C 297.273438 287.246094 295.054688 287.554688 292.832031 287.808594 C 290.605469 288.066406 288.375 288.265625 286.140625 288.414062 C 283.902344 288.558594 281.667969 288.652344 279.425781 288.6875 C 277.1875 288.722656 274.945312 288.707031 272.707031 288.632812 C 270.46875 288.558594 268.234375 288.429688 266 288.246094 C 263.769531 288.066406 261.542969 287.828125 259.320312 287.535156 C 257.101562 287.242188 254.886719 286.894531 252.683594 286.496094 C 250.480469 286.09375 248.289062 285.640625 246.105469 285.132812 C 243.925781 284.621094 241.757812 284.0625 239.601562 283.445312 C 237.449219 282.832031 235.3125 282.164062 233.191406 281.445312 C 231.070312 280.726562 228.96875 279.953125 226.882812 279.132812 C 224.800781 278.308594 222.738281 277.433594 220.699219 276.511719 C 218.65625 275.585938 216.640625 274.613281 214.648438 273.589844 C 212.65625 272.566406 210.691406 271.496094 208.75 270.378906 C 206.808594 269.257812 204.898438 268.09375 203.015625 266.878906 C 201.132812 265.664062 199.28125 264.40625 197.460938 263.101562 C 195.640625 261.800781 193.851562 260.453125 192.097656 259.058594 C 190.34375 257.667969 188.625 256.234375 186.941406 254.757812 C 185.257812 253.28125 183.609375 251.765625 182 250.207031 C 180.390625 248.652344 178.820312 247.058594 177.289062 245.421875 C 175.757812 243.789062 174.265625 242.117188 172.816406 240.410156 C 171.371094 238.703125 169.960938 236.964844 168.597656 235.1875 C 167.234375 233.410156 165.917969 231.601562 164.640625 229.761719 C 163.367188 227.921875 162.136719 226.050781 160.957031 224.148438 C 159.773438 222.25 158.636719 220.320312 157.550781 218.363281 C 156.460938 216.40625 155.421875 214.425781 154.429688 212.417969 C 153.441406 210.410156 152.5 208.378906 151.609375 206.324219 C 150.71875 204.269531 149.878906 202.195312 149.089844 200.101562 C 148.300781 198.007812 147.5625 195.894531 146.878906 193.761719 C 146.191406 191.632812 145.558594 189.484375 144.980469 187.320312 C 144.402344 185.160156 143.875 182.984375 143.402344 180.796875 C 142.929688 178.609375 142.511719 176.410156 142.144531 174.203125 C 141.78125 171.992188 141.472656 169.777344 141.214844 167.554688 C 140.957031 165.328125 140.757812 163.101562 140.613281 160.867188 C 140.464844 158.632812 140.375 156.398438 140.335938 154.160156 C 140.300781 151.921875 140.320312 149.683594 140.390625 147.445312 C 140.464844 145.207031 140.59375 142.976562 140.777344 140.742188 C 140.960938 138.511719 141.199219 136.289062 141.492188 134.070312 C 141.785156 131.847656 142.128906 129.636719 142.53125 127.4375 C 142.933594 125.234375 143.386719 123.042969 143.894531 120.863281 C 144.40625 118.683594 144.96875 116.515625 145.582031 114.363281 C 146.199219 112.210938 146.867188 110.078125 147.585938 107.957031 C 148.304688 105.835938 149.078125 103.734375 149.902344 101.65625 C 150.722656 99.574219 151.597656 97.511719 152.523438 95.472656 C 153.445312 93.433594 154.421875 91.417969 155.445312 89.429688 C 156.46875 87.4375 157.539062 85.472656 158.660156 83.535156 C 159.78125 81.597656 160.949219 79.6875 162.160156 77.804688 C 163.375 75.921875 164.636719 74.074219 165.941406 72.253906 C 167.246094 70.433594 168.59375 68.648438 169.984375 66.894531 C 171.378906 65.140625 172.8125 63.421875 174.289062 61.742188 C 175.769531 60.058594 177.285156 58.410156 178.84375 56.804688 C 180.402344 55.195312 181.996094 53.625 183.632812 52.09375 C 185.269531 50.566406 186.9375 49.078125 188.648438 47.628906 C 190.355469 46.179688 192.097656 44.773438 193.875 43.414062 C 195.652344 42.050781 197.460938 40.730469 199.304688 39.457031 C 201.148438 38.183594 203.019531 36.957031 204.921875 35.773438 C 206.824219 34.59375 208.753906 33.457031 210.710938 32.371094 C 212.667969 31.28125 214.652344 30.246094 216.664062 29.253906 C 230.582031 22.398438 245.242188 18.03125 260.644531 16.160156 C 255.140625 14.382812 249.5625 12.875 243.914062 11.632812 C 238.261719 10.394531 232.566406 9.429688 226.824219 8.738281 C 221.078125 8.046875 215.316406 7.632812 209.535156 7.496094 C 203.75 7.363281 197.976562 7.503906 192.207031 7.925781 C 186.4375 8.34375 180.699219 9.042969 175 10.015625 C 169.296875 10.988281 163.65625 12.230469 158.074219 13.746094 C 152.492188 15.265625 146.996094 17.046875 141.585938 19.089844 C 136.175781 21.136719 130.875 23.4375 125.6875 25.992188 Z M 125.6875 25.992188 " fill-opacity="1" fill-rule="evenodd"/></svg>